<svg width="416" height="258" viewBox="0 0 416 258" fill="none" xmlns="http://www.w3.org/2000/svg">
<g id="Fill 108" filter="url(#filter0_d)">
<path fill-rule="evenodd" clip-rule="evenodd" d="M326.236 90.103C319.693 90.103 313.379 91.0839 307.425 92.8914C296.564 47.0788 255.444 13 206.366 13C157.594 13 116.68 46.6608 105.516 92.0432C100.472 90.7816 95.1996 90.103 89.7667 90.103C53.9976 90.103 25 119.137 25 154.949C25 190.765 53.9976 219.797 89.7667 219.797H190.526C195.691 220.588 200.98 221 206.366 221C211.752 221 217.042 220.588 222.207 219.797H326.236C362.004 219.797 391 190.765 391 154.949C391 119.137 362.004 90.103 326.236 90.103Z" fill="white"/>
</g>
<defs>
<filter id="filter0_d" x="0" y="0" width="416" height="258" filterUnits="userSpaceOnUse" color-interpolation-filters="sRGB">
<feFlood flood-opacity="0" result="BackgroundImageFix"/>
<feColorMatrix in="SourceAlpha" type="matrix" values="0 0 0 0 0 0 0 0 0 0 0 0 0 0 0 0 0 0 127 0"/>
<feOffset dy="12"/>
<feGaussianBlur stdDeviation="12.5"/>
<feColorMatrix type="matrix" values="0 0 0 0 0 0 0 0 0 0 0 0 0 0 0 0 0 0 0.06 0"/>
<feBlend mode="normal" in2="BackgroundImageFix" result="effect1_dropShadow"/>
<feBlend mode="normal" in="SourceGraphic" in2="effect1_dropShadow" result="shape"/>
</filter>
</defs>
</svg>
